<svg width="40" height="39" viewBox="0 0 40 39" fill="none" xmlns="http://www.w3.org/2000/svg">
    <path d="M19.6261 30.355L20.8443 31.7824V9.5683L19.6261 8.14089V30.355ZM11.2249 15.8482H12.5855C13.5262 13.9137 15.1732 12.3888 17.1897 11.6129V24.75L18.4079 26.1756V9.97613C15.148 10.5969 12.4629 12.8454 11.2249 15.8482ZM23.2806 11.6129C25.2971 12.3888 26.9442 13.9137 27.8848 15.8482H29.2454C28.0074 12.8454 25.3223 10.5969 22.0624 9.97613V22.3049L23.2806 23.7323V11.6129V11.6129ZM16.3211 35.9293C16.2454 35.8463 16.1535 35.7867 16.0436 35.7506L13.4469 34.9169L13.2739 35.4583L15.7769 36.2631C15.8238 36.2776 15.858 36.3046 15.8796 36.3425C15.8994 36.3804 15.9031 36.4237 15.8886 36.4706L15.3066 38.2933C15.2922 38.3402 15.2651 38.3745 15.2255 38.3925C15.1876 38.4105 15.1444 38.4124 15.0957 38.3979L12.5927 37.5931L12.4197 38.1345L15.0164 38.9682C15.1264 39.0042 15.2363 39.0097 15.3444 38.9844C15.4543 38.9609 15.5498 38.9104 15.6327 38.8364C15.7156 38.7606 15.7751 38.6686 15.8093 38.5585L16.4509 36.5482C16.4869 36.4382 16.4923 36.3281 16.4671 36.218C16.4437 36.1079 16.3932 36.0123 16.3193 35.9293H16.3211ZM12.7963 34.9205C12.7927 34.8105 12.7657 34.7058 12.7134 34.6101C12.6612 34.5127 12.5855 34.4351 12.4864 34.3774L11.1871 33.6213C11.0844 33.5617 10.9781 33.5328 10.8681 33.5364C10.7582 33.54 10.6555 33.5671 10.56 33.6194C10.4645 33.6718 10.387 33.7494 10.3293 33.8486L9.59769 35.1154C9.54003 35.2147 9.51119 35.3211 9.513 35.4294C9.513 35.5395 9.54183 35.6424 9.59409 35.7398C9.64635 35.8372 9.72384 35.9148 9.82655 35.9744L11.1258 36.7305C11.2249 36.7883 11.3313 36.8153 11.4394 36.8135C11.5493 36.8099 11.652 36.7828 11.7493 36.7305C11.8466 36.6782 11.9241 36.6024 11.9818 36.5013L12.7134 35.2345C12.7711 35.1335 12.7981 35.0288 12.7963 34.9187V34.9205ZM12.2233 34.9729L11.5097 36.2072C11.497 36.2288 11.479 36.2433 11.4556 36.2487C11.4322 36.2541 11.4106 36.2523 11.3889 36.2397L10.1221 35.5034C10.1005 35.4908 10.086 35.4727 10.0806 35.4493C10.0752 35.4258 10.077 35.4024 10.0897 35.3807L10.8033 34.1464C10.8159 34.1247 10.8339 34.1103 10.8573 34.1049C10.8807 34.0995 10.9042 34.1013 10.924 34.1139L12.1908 34.8502C12.2125 34.8628 12.2269 34.8808 12.2323 34.9043C12.2377 34.9277 12.2359 34.9512 12.2233 34.9729ZM9.78691 32.6739L8.36149 34.1752C8.34347 34.1933 8.32365 34.2023 8.29842 34.2041C8.27499 34.2041 8.25337 34.1969 8.23895 34.1825L7.50732 33.4841C7.4893 33.4661 7.48029 33.4462 7.48029 33.4227C7.48029 33.3993 7.4893 33.3794 7.50732 33.3614L8.93274 31.86L8.52367 31.4684L7.09826 32.9698C7.08024 32.9879 7.06041 32.9969 7.03699 32.9987C7.01356 32.9987 6.99194 32.9915 6.97752 32.977L6.24949 32.2823C6.23147 32.2642 6.22246 32.2444 6.22066 32.2191C6.22066 32.1957 6.22787 32.174 6.24589 32.1559L7.67131 30.6546L7.26765 30.2702L5.82962 31.786C5.75033 31.869 5.69807 31.9647 5.67464 32.0711C5.65121 32.1776 5.65302 32.2841 5.68005 32.3905C5.70888 32.497 5.76474 32.5908 5.85124 32.6739L8.32365 35.036L10.1942 33.0654L9.78691 32.6775V32.6739ZM7.65148 28.8392L6.75587 29.4365L5.88368 28.1192C5.82241 28.0253 5.73951 27.9549 5.6386 27.908C5.53769 27.8611 5.43317 27.8394 5.32504 27.8449C5.21692 27.8503 5.1142 27.8846 5.01689 27.9495L3.80232 28.7598C3.70681 28.8247 3.63473 28.9059 3.58787 29.0034C3.54102 29.1026 3.51939 29.2073 3.5248 29.3192C3.53021 29.4311 3.56264 29.5339 3.62572 29.6278L4.80605 31.4089L7.95963 29.3047L7.65148 28.8392V28.8392ZM6.21886 29.7956L5.03491 30.586C5.01329 30.6004 4.99167 30.604 4.96644 30.5968C4.94121 30.5914 4.92319 30.5788 4.91057 30.5607L4.09785 29.3336C4.08524 29.3156 4.08163 29.2939 4.08704 29.2705C4.09244 29.247 4.10506 29.2272 4.12488 29.2145L5.30883 28.4241C5.33045 28.4097 5.35207 28.4061 5.3755 28.4097C5.39893 28.4151 5.41695 28.4259 5.42956 28.444L6.24228 29.6711C6.2549 29.6891 6.2585 29.7108 6.2549 29.736C6.25129 29.7613 6.23868 29.7812 6.21706 29.7938L6.21886 29.7956ZM2.57873 26.098C2.58774 26.0764 2.60396 26.0602 2.62738 26.0493L3.02383 25.8833L3.86899 27.9188L4.80065 27.5291C4.90697 27.4839 4.99347 27.419 5.05834 27.3306C5.12321 27.2421 5.16466 27.1429 5.18088 27.0328C5.1971 26.9227 5.18448 26.8145 5.13943 26.7062L4.3213 24.7356L2.39492 25.5404C2.2886 25.5856 2.2021 25.6505 2.13723 25.7389C2.07235 25.8274 2.03091 25.9248 2.01469 26.0349C1.99667 26.1432 2.01108 26.2532 2.05613 26.3633L2.87426 28.3339L3.38785 28.1192L2.57692 26.1648C2.56791 26.1414 2.56791 26.1197 2.57692 26.0962L2.57873 26.098ZM4.02216 25.4683L4.61864 26.9065C4.62765 26.9299 4.62765 26.9516 4.61864 26.9751C4.60963 26.9967 4.59341 27.013 4.56999 27.0238L4.12488 27.2097L3.49417 25.6884L4.02036 25.4683H4.02216ZM3.89062 24.2376C3.9681 24.1618 4.02397 24.0697 4.05821 23.9633C4.09244 23.8568 4.09605 23.7485 4.06902 23.6348L3.83295 22.6441L3.29234 22.7741L3.523 23.7467C3.5284 23.772 3.5248 23.7936 3.51219 23.8135C3.49957 23.8333 3.48155 23.8478 3.45632 23.8532L1.98766 24.2051L1.73537 23.1458L1.19476 23.2757L1.44704 24.335L0.623508 24.5317L0.753255 25.0749L3.60589 24.3927C3.71762 24.3657 3.81313 24.3151 3.89062 24.2376V24.2376ZM0.702798 22.1352L0.147768 22.2146L0.225256 22.7668L0.780286 22.6874L0.702798 22.1352ZM1.02717 22.0883L1.10465 22.6405L3.7897 22.2579L3.71221 21.7058L1.02717 22.0883V22.0883ZM3.57706 19.091C3.57526 18.9791 3.54462 18.8744 3.48516 18.7806C3.42569 18.6867 3.35 18.6109 3.25449 18.5568C3.16079 18.5027 3.05447 18.4756 2.93914 18.4774L1.47948 18.5009C1.36415 18.5027 1.25963 18.5333 1.16773 18.5911C1.07582 18.6488 1.00014 18.7264 0.944272 18.8221C0.888408 18.9177 0.861378 19.0224 0.86318 19.1361L0.888408 20.7169L0 20.7313L0.00901023 21.2889L3.6095 21.2312L3.57526 19.0928L3.57706 19.091ZM3.02023 20.6537C3.00401 20.6735 2.98238 20.6826 2.95716 20.6826L1.53534 20.706C1.51011 20.706 1.48849 20.697 1.47227 20.679C1.45425 20.6609 1.44524 20.6411 1.44524 20.6176L1.42181 19.1451C1.42181 19.1234 1.42902 19.1036 1.44704 19.0855C1.46326 19.0675 1.48489 19.0585 1.51011 19.0585L2.93193 19.035C2.95716 19.035 2.97878 19.0422 2.995 19.0603C3.01302 19.0765 3.02203 19.0964 3.02203 19.118L3.04546 20.5905C3.04546 20.6122 3.03825 20.632 3.02023 20.6519V20.6537ZM3.35 17.9902C3.44911 17.9433 3.53381 17.8783 3.60229 17.7917C3.67077 17.705 3.71221 17.6058 3.72663 17.4903L3.7897 16.9688L3.23647 16.9002L3.1752 17.4037C3.1734 17.4253 3.16259 17.4434 3.14277 17.4596C3.12294 17.4741 3.10132 17.4813 3.07609 17.4777L0.138757 17.1168L0.0702798 17.6762L3.02744 18.0389C3.14277 18.0533 3.24909 18.0371 3.3482 17.9902H3.35ZM1.51011 15.9131C1.5858 15.9943 1.6777 16.0485 1.78943 16.0791L3.19683 16.4617C3.30856 16.4924 3.41668 16.4924 3.5212 16.4617C3.62572 16.431 3.71942 16.3769 3.79871 16.3011C3.8798 16.2253 3.93386 16.1315 3.9645 16.0196L4.52133 13.9588L3.98432 13.8126L3.43109 15.8554C3.42389 15.8788 3.41127 15.8969 3.38965 15.9095C3.36802 15.9221 3.3464 15.924 3.32117 15.9185L2.9067 15.8048L3.48335 13.6773L2.50845 13.412C2.39672 13.3813 2.2886 13.3813 2.18408 13.412C2.07956 13.4409 1.98585 13.495 1.90656 13.569C1.82727 13.6448 1.77141 13.7386 1.73897 13.8541L1.34613 15.3068C1.31549 15.4187 1.3173 15.5269 1.34613 15.6334C1.37676 15.7399 1.43082 15.8319 1.50471 15.9131H1.51011ZM1.89035 15.4367L2.27418 14.0201C2.28139 13.9967 2.294 13.9786 2.31563 13.966C2.33725 13.9534 2.35888 13.9516 2.38411 13.957L2.84903 14.0833L2.41834 15.6731L1.95342 15.5468C1.92999 15.5396 1.91197 15.5269 1.89936 15.5053C1.88674 15.4836 1.88494 15.462 1.89035 15.4367V15.4367ZM5.99901 10.9813L4.88354 9.21641L6.95049 9.58093L7.19917 9.21641L5.53588 6.83259L5.1989 7.32884L6.24409 8.82843L4.39158 8.51444L4.051 9.0143L5.03672 10.5861L3.24188 10.2035L2.9067 10.6961L5.74852 11.3476L5.99901 10.9795V10.9813ZM8.13263 8.22571L8.52187 7.8269L6.58648 5.91948L6.19723 6.31829L8.13263 8.22571V8.22571ZM6.35401 5.6903L5.95396 5.2951L5.56472 5.69391L5.96477 6.08911L6.35401 5.6903V5.6903ZM8.75434 7.15741C8.85705 7.1935 8.96337 7.20252 9.0733 7.18448C9.18322 7.16824 9.28234 7.12132 9.37064 7.04733L10.1473 6.39228L9.78871 5.9646L9.02644 6.60882C9.00662 6.62506 8.985 6.63228 8.96157 6.63048C8.93814 6.62867 8.91652 6.61785 8.9021 6.598L7.929 5.43947L8.75974 4.7375L8.40113 4.30982L7.57039 5.01179L7.02437 4.36215L6.59909 4.72125L8.48763 6.97154C8.56152 7.05996 8.64982 7.12132 8.75434 7.15741V7.15741ZM10.969 5.81482L9.90404 4.03733C9.89143 4.01567 9.88782 3.99221 9.89503 3.96875C9.90224 3.94349 9.91485 3.92725 9.93468 3.91462L11.1943 3.1567C11.2123 3.14588 11.2339 3.14227 11.2574 3.14948C11.2808 3.1549 11.2988 3.16933 11.3114 3.19099L12.3764 4.96848L12.854 4.68155L11.78 2.88782C11.7205 2.78857 11.643 2.71278 11.5457 2.66225C11.4502 2.60992 11.3457 2.58466 11.234 2.58466C11.1222 2.58466 11.0195 2.61353 10.9222 2.67128L9.57066 3.48513L9.11294 2.7218L8.6354 3.00873L10.4897 6.10535L10.9672 5.81843L10.969 5.81482ZM17.1555 3.29926C17.2672 3.27219 17.3627 3.21806 17.442 3.14046C17.5213 3.06287 17.5771 2.97083 17.6096 2.86256C17.642 2.75429 17.6456 2.64421 17.6168 2.53233L17.1122 0.482348C17.0852 0.370465 17.0311 0.273019 16.9518 0.193618C16.8725 0.114218 16.7806 0.0582766 16.6743 0.0257946C16.568 -0.00668748 16.4599 -0.00849204 16.3482 0.0203809L13.6919 0.679045L14.5011 3.95793L17.1573 3.29926H17.1555ZM14.3983 1.11214C14.411 1.09229 14.429 1.07966 14.4542 1.07424L16.4599 0.576185C16.4833 0.570771 16.5067 0.572576 16.5266 0.583403C16.5464 0.59423 16.5608 0.612276 16.5662 0.635735L17.0618 2.64962C17.0672 2.67308 17.0636 2.69654 17.051 2.71459C17.0383 2.73444 17.0203 2.74707 16.9951 2.75248L14.9894 3.25054C14.966 3.25595 14.9426 3.25415 14.9227 3.24332C14.9029 3.23249 14.8885 3.21445 14.8831 3.19099L14.3875 1.1771C14.3821 1.15364 14.3857 1.13018 14.3983 1.11214V1.11214ZM18.9125 2.53593C18.8872 2.53593 18.8656 2.52872 18.8494 2.51248C18.8314 2.49623 18.8224 2.47458 18.8224 2.44932L18.8116 2.01803L21.0082 1.95848L20.9812 0.946119C20.9776 0.830627 20.947 0.725963 20.8893 0.633931C20.8298 0.541898 20.7542 0.467911 20.6586 0.41197C20.5631 0.356029 20.4568 0.330765 20.3379 0.334374L18.8368 0.374074C18.7214 0.377683 18.6187 0.408361 18.525 0.469716C18.4331 0.529266 18.3592 0.608667 18.3052 0.702504C18.2493 0.798145 18.2241 0.90281 18.2277 1.0183L18.2673 2.4818C18.2709 2.59729 18.3016 2.70195 18.3628 2.79399C18.4223 2.88602 18.4998 2.96001 18.5953 3.01595C18.6908 3.07189 18.7953 3.09715 18.9107 3.09354L21.0371 3.0358L21.0227 2.47819L18.9143 2.53413L18.9125 2.53593ZM18.7827 1.02372C18.7827 0.998451 18.7899 0.976797 18.8061 0.960556C18.8224 0.94251 18.844 0.933487 18.8692 0.933487L20.3325 0.893787C20.3577 0.893787 20.3793 0.901005 20.3955 0.917246C20.4136 0.933487 20.4226 0.955142 20.4226 0.980406L20.4352 1.46403L18.7935 1.50734L18.7809 1.02372H18.7827ZM24.2393 2.9582L22.1579 2.61714C22.1327 2.61353 22.1147 2.6009 22.1003 2.58105C22.0859 2.5612 22.0805 2.53954 22.0859 2.51428L22.1543 2.0884L24.324 2.4439L24.4862 1.44418C24.5042 1.33049 24.4934 1.22222 24.4538 1.12116C24.4141 1.02011 24.351 0.931683 24.2681 0.8595C24.1852 0.787318 24.0843 0.742204 23.969 0.722354L22.4877 0.480543C22.3742 0.462498 22.2661 0.473325 22.1652 0.51483C22.0642 0.556335 21.9759 0.619494 21.9057 0.702504C21.8336 0.785514 21.7885 0.884764 21.7705 0.998451L21.5362 2.4439C21.5182 2.55759 21.529 2.66586 21.5705 2.76872C21.6119 2.86978 21.675 2.9582 21.7579 3.03038C21.8408 3.10257 21.9399 3.14768 22.0534 3.16753L24.1528 3.5122L24.2429 2.96181L24.2393 2.9582ZM22.3129 1.10672C22.3165 1.08146 22.3291 1.06342 22.349 1.04898C22.3688 1.03454 22.3904 1.02913 22.4156 1.03454L23.8609 1.27094C23.8861 1.27455 23.9041 1.28718 23.9185 1.30703C23.933 1.32688 23.9384 1.34854 23.933 1.3738L23.8555 1.8502L22.2354 1.58493L22.3129 1.10853V1.10672ZM24.7781 4.84938L25.1511 3.83702L26.6288 4.38561C26.7333 4.42531 26.8415 4.43433 26.9514 4.41267C27.0613 4.39102 27.1586 4.34591 27.2433 4.27914C27.328 4.21056 27.3911 4.12214 27.4307 4.01387L27.9371 2.6406C27.9768 2.53233 27.9876 2.42405 27.9677 2.31578C27.9479 2.20751 27.9029 2.11006 27.8344 2.02344C27.7659 1.93682 27.6776 1.87366 27.5731 1.83396L25.5728 1.09048L24.2573 4.65449L24.7799 4.84757L24.7781 4.84938ZM25.3764 3.23069L25.8702 1.89351C25.8792 1.87005 25.8954 1.85381 25.9188 1.84479C25.9422 1.83577 25.9639 1.83396 25.9855 1.84118L27.3623 2.35367C27.3821 2.36089 27.3983 2.37533 27.4073 2.39879C27.4181 2.42044 27.4181 2.4439 27.4091 2.46736L26.9153 3.80454C26.9063 3.828 26.8919 3.84424 26.8685 3.85507C26.8469 3.86589 26.8252 3.86589 26.8054 3.85868L25.4287 3.34618C25.4088 3.33896 25.3926 3.32272 25.38 3.30107C25.3692 3.27761 25.3674 3.25595 25.3764 3.23249V3.23069ZM28.0398 5.03705L29.4544 2.87519L29.7031 4.94863L31.6962 4.34771L30.2798 6.51318L30.7519 6.82537L32.6008 4.00124L32.062 3.64574L30.1843 4.21598L29.9554 2.25803L29.4202 1.90434L27.5713 4.72847L28.0398 5.03705V5.03705ZM31.4889 7.62479L33.3234 5.61992L32.9126 5.24277L31.0781 7.24764L31.4889 7.62479ZM33.9235 4.96307L33.5126 4.58591L33.1324 5.00096L33.5433 5.37811L33.9235 4.96307ZM32.2746 8.39894L33.8622 7.07079C33.8821 7.05455 33.9037 7.04914 33.9289 7.05094C33.9541 7.05455 33.974 7.06357 33.9884 7.08162L34.929 8.21307C34.9435 8.22932 34.9489 8.25097 34.9471 8.27443C34.9453 8.29789 34.9344 8.31954 34.9146 8.33398L33.327 9.66213L33.6838 10.0916L35.2858 8.75083C35.3741 8.67685 35.4372 8.58842 35.4733 8.48376C35.5093 8.3809 35.5183 8.27443 35.5021 8.16255C35.4859 8.05247 35.4408 7.95322 35.3687 7.8666L34.0028 6.22445L31.9214 7.96765L32.2782 8.39714L32.2746 8.39894ZM34.2353 10.3623C34.1812 10.4579 34.1524 10.5608 34.147 10.6709C34.1415 10.781 34.1668 10.8874 34.2226 10.9885L35.2498 12.858L35.7364 12.5891L34.7182 10.7358C34.7056 10.7142 34.7038 10.6907 34.711 10.6673C34.7182 10.6438 34.7326 10.6258 34.7542 10.6149L35.1309 10.4056L36.1923 12.3365L37.0771 11.8475C37.178 11.7915 37.2555 11.7157 37.3113 11.6219C37.3654 11.528 37.396 11.4252 37.4014 11.3151C37.4069 11.205 37.3816 11.0986 37.324 10.9939L36.5995 9.67477C36.5437 9.57371 36.468 9.49612 36.3725 9.44198C36.277 9.38784 36.1743 9.35716 36.0643 9.35175C35.9544 9.34634 35.8499 9.3716 35.749 9.42754L34.4713 10.1349C34.3704 10.1909 34.2929 10.2667 34.2389 10.3623H34.2353ZM35.9977 9.9256C36.0193 9.91297 36.0427 9.91116 36.0661 9.91838C36.0896 9.9256 36.1076 9.94004 36.1184 9.96169L36.8248 11.2483C36.8374 11.27 36.8392 11.2935 36.832 11.3169C36.8248 11.3404 36.8104 11.3584 36.7888 11.3692L36.3671 11.602L35.5742 10.1602L35.9959 9.9274L35.9977 9.9256ZM36.0842 15.1931L38.616 14.7095L37.3059 16.3318L39.1224 17.3496L36.5869 17.835L36.6932 18.3926L40 17.7592L39.8793 17.124L38.1637 16.1676L39.4053 14.6409L39.2846 14.0093L35.9778 14.6427L36.0824 15.1949L36.0842 15.1931ZM38.6467 21.7635C38.762 21.7689 38.8665 21.7437 38.9638 21.6913C39.0593 21.639 39.1386 21.5668 39.1999 21.4748C39.2612 21.3827 39.2936 21.2781 39.299 21.159L39.3567 19.654C39.3621 19.5385 39.3368 19.432 39.2828 19.3364C39.2287 19.2407 39.1566 19.1613 39.0647 19.1C38.9728 19.0386 38.8701 19.0061 38.7548 19.0007L37.2969 18.943C37.1816 18.9376 37.0771 18.9628 36.9798 19.017C36.8843 19.0711 36.805 19.1433 36.7437 19.2353C36.6824 19.3273 36.65 19.4302 36.6446 19.5457L36.5617 21.6787L37.1185 21.7003L37.2014 19.5854C37.2014 19.5601 37.2122 19.5403 37.2303 19.5222C37.2483 19.506 37.2699 19.4988 37.2951 19.4988L37.7258 19.515L37.6393 21.7184L38.6485 21.7581L38.6467 21.7635ZM38.2322 19.5403L38.7133 19.5583C38.7386 19.5583 38.7584 19.5692 38.7746 19.5872C38.7908 19.6053 38.798 19.6269 38.798 19.6522L38.7404 21.1193C38.7404 21.1445 38.7296 21.1644 38.7115 21.1824C38.6935 21.1987 38.6719 21.2059 38.6467 21.2059L38.1655 21.1878L38.2286 19.5421L38.2322 19.5403ZM36.7473 22.3121C36.6446 22.3482 36.5563 22.4077 36.4806 22.4907C36.4049 22.5737 36.3563 22.6712 36.3346 22.7849L36.1346 23.7828L36.6806 23.8929L36.8753 22.913C36.8807 22.8877 36.8933 22.8697 36.9131 22.8553C36.9329 22.8408 36.9563 22.8372 36.9798 22.8426L38.4611 23.1404L38.2484 24.2069L38.7944 24.3169L39.0071 23.2505L39.8378 23.4165L39.9477 22.8697L37.0735 22.2922C36.9599 22.2688 36.8518 22.276 36.7491 22.3139L36.7473 22.3121ZM37.3168 26.9751C37.3077 26.9985 37.2915 27.0148 37.2699 27.0256C37.2483 27.0346 37.2248 27.0364 37.2014 27.0256L36.7996 26.8722L37.5799 24.8096L36.6356 24.4505C36.5275 24.409 36.4193 24.3982 36.313 24.418C36.2067 24.4379 36.1076 24.4812 36.0211 24.5497C35.9328 24.6183 35.8697 24.7067 35.8283 24.815L35.0732 26.8108L37.023 27.5525C37.1311 27.594 37.2393 27.6049 37.3456 27.585C37.4537 27.5652 37.5492 27.5218 37.6375 27.4551C37.724 27.3883 37.7889 27.2981 37.8303 27.188L38.5854 25.1922L38.0646 24.9937L37.3168 26.9715V26.9751ZM35.7904 26.4896L36.3418 25.0334C36.3509 25.0099 36.3671 24.9937 36.3887 24.9828C36.4103 24.972 36.4338 24.972 36.4572 24.9828L36.9077 25.1543L36.3256 26.6936L35.7922 26.4914L35.7904 26.4896ZM33.9253 28.7417L35.412 31.4702L35.758 30.9234L34.6227 28.8735L36.9545 29.0286L37.3005 28.4819L34.2118 28.2888L33.9271 28.7399L33.9253 28.7417ZM34.4839 31.5803L33.4315 30.5661C33.3486 30.4867 33.2531 30.4344 33.145 30.4109C33.0369 30.3875 32.9306 30.3893 32.8243 30.4182C32.7179 30.4452 32.6242 30.5012 32.5449 30.5842L31.0709 32.1235L31.4727 32.5096L32.9342 30.983C32.9522 30.9649 32.972 30.9559 32.9973 30.9559C33.0207 30.9559 33.0423 30.9631 33.0603 30.9812L33.3703 31.2807L31.8475 32.8706L32.5756 33.5725C32.6585 33.6519 32.754 33.7043 32.8603 33.7295C32.9666 33.7548 33.0729 33.753 33.1793 33.7241C33.2856 33.697 33.3793 33.6393 33.4622 33.5545L34.502 32.4681C34.5812 32.3851 34.6335 32.2895 34.6569 32.1812C34.6804 32.0729 34.6786 31.9665 34.6497 31.86C34.6227 31.7535 34.5668 31.6597 34.4839 31.5803V31.5803ZM34.0875 32.0964L33.0729 33.1557C33.0549 33.1737 33.0351 33.1827 33.0099 33.1827C32.9864 33.1827 32.9648 33.1755 32.9468 33.1575L32.599 32.8218L33.7361 31.6344L34.0839 31.9701C34.1019 31.9881 34.1109 32.008 34.1109 32.0332C34.1109 32.0567 34.1037 32.0784 34.0857 32.0964H34.0875ZM30.6996 32.4068L30.2527 32.7388L31.4817 34.4062C31.4961 34.4261 31.5016 34.4477 31.4979 34.473C31.4943 34.4965 31.4817 34.5163 31.4619 34.5307L30.2617 35.4204L30.5933 35.8697L31.8079 34.9693C31.898 34.9025 31.9647 34.8177 32.0061 34.7148C32.0476 34.612 32.0656 34.5055 32.0548 34.3954C32.0458 34.2853 32.0061 34.1843 31.9376 34.0904L30.6978 32.4086L30.6996 32.4068ZM29.4724 35.3969C29.4202 35.2941 29.3481 35.2129 29.2544 35.1551C29.1607 35.0974 29.0598 35.0631 28.9499 35.0541C28.8399 35.045 28.7336 35.0649 28.6309 35.1172L27.3046 35.7813C27.283 35.7921 27.2595 35.7939 27.2361 35.7867C27.2127 35.7795 27.1965 35.7651 27.1875 35.7452L27.0325 35.4348C27.0217 35.4132 27.0199 35.3897 27.0271 35.3663C27.0343 35.3428 27.0505 35.3266 27.0721 35.3157L28.3822 34.6589C28.4038 34.648 28.4273 34.6462 28.4507 34.6535C28.4741 34.6607 28.4903 34.6769 28.5011 34.6986L28.5318 34.7617L29.0291 34.5127L28.9895 34.4333C28.9372 34.3304 28.8652 34.2492 28.7715 34.1915C28.6777 34.1337 28.5768 34.0995 28.4669 34.0904C28.357 34.0814 28.2507 34.1013 28.1479 34.1536L26.8054 34.8267C26.6991 34.879 26.618 34.953 26.5603 35.0469C26.5027 35.1407 26.4684 35.2417 26.4594 35.3518C26.4504 35.4619 26.4702 35.5684 26.5225 35.6712L26.6937 36.0159C26.746 36.1188 26.818 36.2 26.9117 36.2577C27.0054 36.3155 27.1064 36.3497 27.2163 36.3588C27.3262 36.3678 27.4343 36.3461 27.5389 36.2938L28.8652 35.6297C28.8868 35.6189 28.9102 35.6171 28.9336 35.6243C28.9571 35.6315 28.9733 35.646 28.9823 35.6658L29.1373 35.9762C29.1481 35.9979 29.1499 36.0213 29.1427 36.0448C29.1355 36.0682 29.1192 36.0845 29.0976 36.0953L27.7875 36.7522C27.7659 36.763 27.7425 36.7648 27.7191 36.7576C27.6956 36.7504 27.6794 36.7341 27.6686 36.7125L27.638 36.6493L27.1352 36.9001L27.1748 36.9795C27.2271 37.0824 27.2992 37.1636 27.3929 37.2213C27.4866 37.2791 27.5875 37.3134 27.6974 37.3224C27.8074 37.3314 27.9155 37.3098 28.02 37.2574L29.3625 36.5843C29.4652 36.532 29.5463 36.4598 29.604 36.366C29.6617 36.2721 29.6959 36.1711 29.7049 36.061C29.7139 35.9509 29.6941 35.8445 29.6418 35.7416L29.4706 35.3969H29.4724ZM26.054 35.8499C26.0233 35.738 25.9675 35.646 25.8864 35.5702C25.8053 35.4962 25.7134 35.4421 25.6071 35.4114C25.5007 35.3807 25.3926 35.3807 25.2827 35.4114L23.2338 35.9852L23.3833 36.523L25.4142 35.9545C25.4377 35.9473 25.4611 35.9509 25.4827 35.9618C25.5043 35.9744 25.517 35.9924 25.5242 36.0159L25.6395 36.4309L23.5221 37.0228L23.7942 37.9991C23.8248 38.111 23.8807 38.2048 23.96 38.2788C24.0393 38.3546 24.1312 38.4069 24.2375 38.4376C24.3438 38.4683 24.4538 38.4683 24.5673 38.4358L26.0125 38.0316C26.1242 38.0009 26.2162 37.945 26.2918 37.8638C26.3657 37.7826 26.4198 37.6887 26.4486 37.5841C26.4793 37.4776 26.4793 37.3693 26.4486 37.2574L26.0558 35.8481L26.054 35.8499ZM25.8972 37.4595C25.8846 37.4812 25.8666 37.4938 25.8431 37.5011L24.4339 37.8962C24.4105 37.9035 24.3871 37.8999 24.3655 37.889C24.3438 37.8764 24.3312 37.8584 24.324 37.8349L24.1943 37.3693L25.7747 36.9272L25.9044 37.3928C25.9116 37.4162 25.908 37.4397 25.8972 37.4614V37.4595ZM20.1415 37.0156C19.8928 37.0156 19.6909 37.2177 19.6909 37.4668C19.6909 37.7158 19.8928 37.9179 20.1415 37.9179C20.3901 37.9179 20.592 37.7158 20.592 37.4668C20.592 37.2177 20.3901 37.0156 20.1415 37.0156Z" fill="white"/>
</svg>
