<svg width="23" height="17" viewBox="0 0 23 17" fill="none" xmlns="http://www.w3.org/2000/svg">
    <path d="M15.139 7.82047C14.0791 7.82047 13.226 8.76163 13.226 9.93807C13.226 11.0884 14.0791 12.0295 15.139 12.0295C16.2248 12.0295 17.0779 11.0884 17.0779 9.93807C17.0779 8.76163 16.2248 7.82047 15.139 7.82047ZM8.28827 7.82047C7.22834 7.82047 6.34937 8.76163 6.34937 9.93807C6.34937 11.0884 7.22834 12.0295 8.28827 12.0295C9.3482 12.0295 10.2013 11.0884 10.2013 9.93807C10.2013 8.76163 9.3482 7.82047 8.28827 7.82047ZM16.9487 16.5C16.9487 16.5 16.2765 15.6634 15.7078 14.9576C18.1896 14.2517 19.1202 12.6831 19.1202 12.6831C18.3447 13.206 17.595 13.572 16.9487 13.8073C15.9921 14.1994 15.0873 14.487 14.2084 14.6438C12.3987 14.9837 10.7442 14.9053 9.32235 14.6438C8.23657 14.4347 7.3059 14.121 6.55619 13.8073C6.11671 13.6504 5.65137 13.4413 5.16018 13.1537C5.10848 13.1275 5.05678 13.1014 5.00507 13.0491C4.95337 13.0491 4.92752 13.023 4.90167 13.023C4.56559 12.8138 4.38463 12.6831 4.38463 12.6831C4.38463 12.6831 5.28944 14.1994 7.69368 14.9314C7.12493 15.6634 6.42693 16.5 6.42693 16.5C2.26477 16.3693 0.687798 13.5981 0.687798 13.5981C0.687798 7.45447 3.40225 2.48727 3.40225 2.48727C6.11671 0.421961 8.67605 0.500391 8.67605 0.500391L8.88286 0.709536C5.47041 1.70298 3.91929 3.21928 3.91929 3.21928C3.91929 3.21928 4.33292 2.98399 5.05678 2.67027C7.07323 1.78141 8.6502 1.54612 9.32235 1.46769C9.42576 1.46769 9.52916 1.44154 9.63257 1.4154C10.7959 1.28469 12.0885 1.2324 13.4587 1.38926C15.2424 1.5984 17.1555 2.14741 19.1202 3.21928C19.1202 3.21928 17.6467 1.7814 14.441 0.787965L14.6996 0.500391C14.6996 0.500391 17.2589 0.421961 19.9733 2.48727C19.9733 2.48727 22.6878 7.45447 22.6878 13.5981C22.6878 13.5981 21.1108 16.3693 16.9487 16.5Z" fill="white"/>
</svg>
