<svg width="76" height="71" viewBox="0 0 76 71" fill="none" xmlns="http://www.w3.org/2000/svg">
    <path opacity="0.4" d="M0.5 10.8293V1.32935H10" stroke="white" stroke-linecap="square"/>
    <path opacity="0.4" d="M75.5 60.8293L75.5 70.3293L66 70.3293" stroke="white" stroke-linecap="square"/>
    <path opacity="0.4" d="M66 1.32935L75.5 1.32935L75.5 10.8293" stroke="white" stroke-linecap="square"/>
    <path opacity="0.4" d="M10 70.3293L0.5 70.3293L0.500001 60.8293" stroke="white" stroke-linecap="square"/>
    <g filter="url(#filter0_f_2_192)">
        <path d="M18.0361 34.4744C18.0361 33.0811 18.4129 31.7759 19.0695 30.6545C22.7624 32.006 27.3387 33.0672 33.0928 33.3331C33.149 33.7054 33.1777 34.0864 33.1777 34.4744C33.1777 38.6559 29.7884 42.0458 25.6069 42.0458C21.4255 42.0458 18.0361 38.6559 18.0361 34.4744Z" fill="#2595FA"/>
        <path d="M53.8464 34.4744C53.8464 33.0811 53.4697 31.7759 52.8131 30.6545C49.1201 32.006 44.5438 33.0672 38.7898 33.3331C38.7335 33.7054 38.7048 34.0864 38.7048 34.4744C38.7048 38.6559 42.0942 42.0458 46.2756 42.0458C50.4571 42.0458 53.8464 38.6559 53.8464 34.4744Z" fill="#2595FA"/>
        <path d="M22.0361 34.4744C22.0361 33.0811 22.4129 31.7759 23.0695 30.6545C26.7624 32.006 31.3387 33.0672 37.0928 33.3331C37.149 33.7054 37.1777 34.0864 37.1777 34.4744C37.1777 38.6559 33.7884 42.0458 29.6069 42.0458C25.4255 42.0458 22.0361 38.6559 22.0361 34.4744Z" fill="#FA2525"/>
        <path d="M57.8464 34.4744C57.8464 33.0811 57.4697 31.7759 56.8131 30.6545C53.1201 32.006 48.5438 33.0672 42.7898 33.3331C42.7335 33.7054 42.7048 34.0864 42.7048 34.4744C42.7048 38.6559 46.0942 42.0458 50.2756 42.0458C54.4571 42.0458 57.8464 38.6559 57.8464 34.4744Z" fill="#FA2525"/>
        <path d="M20.0361 34.4744C20.0361 33.0811 20.4129 31.7759 21.0695 30.6545C24.7624 32.006 29.3387 33.0672 35.0928 33.3331C35.149 33.7054 35.1777 34.0864 35.1777 34.4744C35.1777 38.6559 31.7884 42.0458 27.6069 42.0458C23.4255 42.0458 20.0361 38.6559 20.0361 34.4744Z" fill="#F1F1F1"/>
        <path d="M55.8464 34.4744C55.8464 33.0811 55.4697 31.7759 54.8131 30.6545C51.1201 32.006 46.5438 33.0672 40.7898 33.3331C40.7335 33.7054 40.7048 34.0864 40.7048 34.4744C40.7048 38.6559 44.0942 42.0458 48.2756 42.0458C52.4571 42.0458 55.8464 38.6559 55.8464 34.4744Z" fill="#F1F1F1"/>
    </g>
    <defs>
        <filter id="filter0_f_2_192" x="15.0361" y="27.6545" width="45.8103" height="17.3912" filterUnits="userSpaceOnUse" color-interpolation-filters="sRGB">
            <feFlood flood-opacity="0" result="BackgroundImageFix"/>
            <feBlend mode="normal" in="SourceGraphic" in2="BackgroundImageFix" result="shape"/>
            <feGaussianBlur stdDeviation="1.5" result="effect1_foregroundBlur_2_192"/>
        </filter>
    </defs>
</svg>
