<svg width="173" height="41" viewBox="0 0 173 41" fill="none" xmlns="http://www.w3.org/2000/svg">
    <path d="M111.184 26.8863V15.0052C111.29 14.9966 111.399 14.9764 111.509 14.9764C114.852 14.9764 118.195 14.9592 121.538 14.9822C123.945 14.9994 125.509 17.4285 124.541 19.6191C124.374 19.9956 124.104 20.3262 123.856 20.7143C123.922 20.7603 124.02 20.8322 124.121 20.9012C125.261 21.6831 125.751 23.0457 125.388 24.4256C125.048 25.7278 123.879 26.7397 122.56 26.8662C122.37 26.8834 122.177 26.8863 121.987 26.8863C118.529 26.8863 115.071 26.8863 111.613 26.8863C111.486 26.8863 111.362 26.8863 111.184 26.8863ZM118.114 23.589C119.186 23.589 120.254 23.5948 121.325 23.5833C121.843 23.5775 122.048 23.29 122.048 22.8358C122.048 22.3816 121.786 22.0884 121.316 22.0884C119.151 22.0741 115.353 22.0827 115.025 22.0827C114.524 22.0827 114.256 22.373 114.256 22.833C114.256 23.2929 114.504 23.5833 115.059 23.5833C116.079 23.5919 117.098 23.5833 118.117 23.5833L118.114 23.589ZM117.818 17.9115C116.876 17.9115 115.938 17.9029 114.993 17.9144C114.492 17.9201 114.247 18.1731 114.247 18.6417C114.247 19.1102 114.504 19.4265 115.028 19.4265C116.824 19.4265 118.852 19.4265 120.648 19.4265C121.138 19.4265 121.377 19.1189 121.377 18.6963C121.377 18.2737 121.213 17.9144 120.608 17.9144C119.678 17.9029 118.748 17.9115 117.818 17.9144V17.9115Z" fill="white"/>
    <path d="M134.976 14.7924C136.215 14.7924 137.45 14.7867 138.688 14.7924C140.689 14.8039 142.106 16.2097 142.115 18.199C142.123 19.8979 142.123 21.5969 142.115 23.2958C142.106 25.2851 140.689 26.6937 138.688 26.7023C136.189 26.7109 133.689 26.7109 131.19 26.7023C129.223 26.6937 127.81 25.3052 127.792 23.3533C127.778 21.617 127.778 19.8807 127.792 18.1415C127.81 16.1924 129.226 14.8068 131.193 14.7924C132.454 14.7838 133.718 14.7924 134.979 14.7924H134.976ZM134.965 23.5861C135.872 23.5861 136.776 23.5919 137.683 23.5861C138.403 23.5804 138.769 23.2182 138.774 22.5081C138.78 21.341 138.78 20.1739 138.774 19.0067C138.772 18.2766 138.403 17.9115 137.663 17.9086C135.852 17.9029 134.041 17.9029 132.227 17.9086C131.492 17.9086 131.112 18.2881 131.109 19.0067C131.104 20.1624 131.106 21.3151 131.109 22.4708C131.109 23.2182 131.484 23.5833 132.247 23.5861C133.154 23.5919 134.058 23.5861 134.965 23.5861Z" fill="white"/>
    <path d="M158.553 26.6793C158.435 25.6962 159.17 24.4888 160.192 23.9541C160.713 23.681 161.272 23.589 161.853 23.589C164.099 23.5919 166.342 23.5919 168.588 23.589C169.262 23.589 169.536 23.2929 169.452 22.6892C169.406 22.3615 169.23 22.1517 168.894 22.1057C168.718 22.0798 168.539 22.074 168.361 22.074C166.486 22.074 164.609 22.0798 162.734 22.0712C160.817 22.0597 159.331 20.8494 159.006 19.0585C158.623 16.9485 160.264 14.8442 162.395 14.8154C165.571 14.7723 168.747 14.8011 171.923 14.8011C171.972 14.8011 172.021 14.8154 172.159 14.8356C172.09 15.1719 172.064 15.5111 171.952 15.8187C171.485 17.1238 170.316 17.9086 168.845 17.9144C166.944 17.923 165.044 17.9144 163.143 17.9201C162.481 17.9201 162.182 18.2881 162.311 18.8831C162.374 19.1764 162.544 19.3603 162.844 19.4006C163.019 19.4236 163.198 19.4351 163.377 19.4351C165.34 19.4408 167.307 19.4035 169.271 19.4523C171.727 19.5156 173.386 21.9332 172.608 24.2444C172.147 25.6128 170.837 26.6764 169.409 26.6908C165.838 26.7282 162.265 26.7081 158.695 26.7081C158.646 26.7081 158.597 26.6908 158.553 26.6851V26.6793Z" fill="white"/>
    <path d="M143.773 14.8011H157.364C157.488 15.9624 156.59 17.3164 155.343 17.6758C154.709 17.8597 154.013 17.8626 153.342 17.8827C152.305 17.9144 152.236 17.9604 152.236 18.9895C152.236 21.0075 152.239 23.0227 152.233 25.0407C152.233 25.7623 151.79 26.3775 151.153 26.5959C150.488 26.8259 149.774 26.6391 149.308 26.1101C148.994 25.7565 148.904 25.334 148.907 24.874C148.91 22.8818 148.907 20.8897 148.907 18.9004C148.907 18.7595 148.91 18.6215 148.896 18.4836C148.855 18.0811 148.691 17.9144 148.285 17.9C147.827 17.8827 147.367 17.9 146.906 17.8885C145.236 17.8396 143.886 16.6265 143.773 15.0799C143.767 14.9937 143.773 14.9103 143.773 14.8011Z" fill="white"/>
    <path d="M28.4747 26.8578C28.2616 26.8578 28.1234 26.8578 27.9852 26.8578C24.8466 26.8578 21.708 26.8032 18.5694 26.8779C16.5537 26.9239 14.9038 25.3745 14.97 23.3018C15.0219 21.6805 14.9787 20.0563 14.9816 18.4321C14.9873 16.3393 16.3839 14.9508 18.4887 14.9451C21.564 14.9422 24.6364 14.9451 27.7116 14.9451C27.8355 14.9451 27.9622 14.9566 28.1954 14.9681C28.0744 15.4194 28.0255 15.8535 27.847 16.2243C27.2567 17.4518 26.246 18.0555 24.8783 18.0584C22.9634 18.0612 21.0515 18.0584 19.1366 18.0641C18.506 18.0641 18.2497 18.3717 18.3361 18.9811C18.3793 19.2916 18.5435 19.4986 18.8659 19.5446C19.0301 19.5676 19.1942 19.5791 19.3612 19.5791C20.8413 19.582 22.3213 19.5676 23.8013 19.5877C24.7832 19.5992 25.3908 20.5076 25.0424 21.3901C24.8322 21.9248 24.3801 22.2152 23.7092 22.218C22.3558 22.2238 21.0054 22.218 19.652 22.218C19.4994 22.218 19.3468 22.218 19.1942 22.218C18.5665 22.2324 18.3275 22.4423 18.3304 22.9798C18.3304 23.526 18.5607 23.7359 19.1884 23.7359C21.2041 23.7388 23.2197 23.7301 25.2353 23.7416C26.8392 23.7503 28.1004 24.7535 28.4113 26.2397C28.4488 26.4209 28.4517 26.6106 28.4747 26.8549V26.8578Z" fill="white"/>
    <path d="M-0.000244141 14.9796C0.13797 14.9738 0.250269 14.9652 0.362567 14.9652C3.386 14.9652 6.40655 14.9566 9.42997 14.9652C11.1749 14.9709 12.606 16.0662 13.0149 17.6703C13.5937 19.9413 11.984 22.1433 9.62865 22.2152C7.84627 22.2698 6.05813 22.2324 4.27287 22.2353C3.44358 22.2353 3.29961 22.3618 3.32553 23.1839C3.3716 24.6443 2.81874 25.7712 1.52587 26.5042C1.06515 26.7658 0.56125 26.8894 -0.000244141 26.8521V14.9796ZM6.46125 18.0814C5.60606 18.0814 4.83724 18.0641 3.98492 18.0814C3.48102 18.0814 3.16716 18.3602 3.16716 18.8432C3.16716 19.3261 3.48966 19.6021 4.04539 19.6021C5.66365 19.6078 7.28478 19.6021 8.90303 19.6021C9.49332 19.6021 9.75823 19.3434 9.75823 18.8259C9.75823 18.3085 9.5106 18.09 8.87136 18.09C8.03056 18.09 7.30206 18.09 6.45838 18.09L6.46125 18.0814Z" fill="white"/>
    <path d="M43.0966 14.9681C43.2261 16.1237 42.3162 17.4805 41.0694 17.8456C40.459 18.0239 39.791 18.0325 39.146 18.0497C38.0172 18.0814 37.9625 18.1101 37.9625 19.237C37.9625 21.2033 37.9683 23.1696 37.9596 25.1359C37.9567 26.0845 37.3665 26.7658 36.5055 26.8463C35.4689 26.944 34.6482 26.234 34.6425 25.1962C34.631 23.1552 34.6396 21.1113 34.6367 19.0703C34.6367 18.9294 34.6425 18.7914 34.6281 18.6534C34.5878 18.2567 34.4179 18.0842 34.0148 18.0699C33.5569 18.0526 33.0962 18.0699 32.6384 18.0584C31.0921 18.0124 29.8482 17.0148 29.5574 15.5861C29.5171 15.3935 29.5142 15.1923 29.4911 14.9709H43.0966V14.9681Z" fill="white"/>
    <path d="M59.1236 18.3458C59.1092 16.3537 57.6925 14.9652 55.6827 14.9566C54.4445 14.9508 53.2092 14.9566 51.9711 14.9566C50.7214 14.9566 49.4717 14.9508 48.222 14.9566C46.2467 14.9652 44.83 16.322 44.7955 18.2826C44.7638 20.0304 44.7667 21.7811 44.7955 23.5318C44.8271 25.4923 46.2409 26.8578 48.2162 26.8636C50.7156 26.8722 53.215 26.8722 55.7143 26.8636C57.6954 26.8549 59.1063 25.455 59.1236 23.48C59.138 21.7696 59.1351 20.0563 59.1236 18.3458ZM55.7921 22.6636C55.7892 23.3737 55.4206 23.7445 54.7065 23.7474C53.788 23.7531 52.8694 23.7474 51.9509 23.7474C51.0439 23.7474 50.1397 23.7531 49.2327 23.7474C48.4984 23.7416 48.1299 23.3708 48.127 22.6406C48.1241 21.485 48.1241 20.3322 48.127 19.1766C48.127 18.4493 48.5013 18.0727 49.2356 18.0699C51.0611 18.0641 52.8838 18.0641 54.7094 18.0699C55.4178 18.0699 55.7892 18.4493 55.7921 19.1594C55.7979 20.3265 55.7979 21.4936 55.7921 22.6607V22.6636Z" fill="white"/>
    <path fill-rule="evenodd" clip-rule="evenodd" d="M105.207 2.55831C105.702 1.19555 104.992 0.485124 103.629 0.980629C103.055 1.18923 102.378 1.63941 101.526 2.20536C98.7726 4.03482 94.1986 7.07408 85.424 7.07408C76.6698 7.07408 72.1274 4.06003 69.3635 2.22606C68.5001 1.65311 67.8102 1.19534 67.2197 0.980627C65.8569 0.485122 65.1465 1.19556 65.642 2.55832C65.8465 3.12063 66.2901 3.81538 66.8496 4.69143C68.6758 7.55092 71.7355 12.342 71.7355 20.7633C71.7355 29.0408 68.8625 33.582 67.006 36.5165C66.3951 37.4822 65.8942 38.2739 65.642 38.9675C65.1465 40.3302 65.8569 41.0407 67.2197 40.5452C67.9481 40.2803 68.7775 39.7659 69.7809 39.1436C72.784 37.2811 77.3461 34.4517 85.424 34.4517C93.5338 34.4517 98.1558 37.3237 101.144 39.1807C102.127 39.7914 102.933 40.2923 103.629 40.5452C104.992 41.0407 105.702 40.3302 105.207 38.9675C104.958 38.285 104.463 37.5016 103.857 36.5437C102.002 33.6127 99.1134 29.047 99.1134 20.7323C99.1134 12.3146 102.14 7.59334 103.972 4.73612C104.541 3.84866 104.995 3.14103 105.207 2.55831ZM74.8165 20.4327C74.8165 19.6088 75.039 18.8369 75.4273 18.1737C77.6111 18.9729 80.3177 19.6005 83.7203 19.7577C83.7535 19.9779 83.7708 20.2033 83.7708 20.4327C83.7708 22.9054 81.7663 24.9099 79.2936 24.9099C76.821 24.9099 74.8165 22.9054 74.8165 20.4327ZM87.0441 20.4327C87.0441 20.2029 87.0614 19.9772 87.0948 19.7568C90.4913 19.5976 93.1987 18.9685 95.3845 18.1685C95.7746 18.8328 95.9984 19.6066 95.9984 20.4327C95.9984 22.9054 93.9939 24.9099 91.5212 24.9099C89.0486 24.9099 87.0441 22.9054 87.0441 20.4327Z" fill="white"/>
</svg>
