<svg width="594" height="94" viewBox="0 0 594 94" fill="none" xmlns="http://www.w3.org/2000/svg">
    <path d="M51.96 53.04C61.44 53.04 69.12 45.36 69.12 35.88C69.12 26.4 61.44 18.6 51.96 18.6H7.32V75C15.96 75 22.92 68.04 22.92 59.4V56.16C22.92 54.48 24.36 53.04 26.04 53.04H51.96ZM49.92 33.36C51.84 33.36 53.52 34.92 53.52 36.96C53.52 39 51.84 40.56 49.92 40.56H25.8C23.76 40.56 22.2 39 22.2 36.96C22.2 34.92 23.76 33.36 25.8 33.36H49.92ZM141.308 75C141.308 66.84 134.708 60.24 126.548 60.24H97.1475C95.2275 60.24 93.5475 58.68 93.5475 56.64C93.5475 54.72 95.2275 53.04 97.1475 53.04H119.348C122.828 53.04 125.708 50.28 125.708 46.8C125.708 43.32 122.828 40.56 119.348 40.56H97.1475C95.2275 40.56 93.5475 39 93.5475 36.96C93.5475 34.92 95.2275 33.36 97.1475 33.36H124.988C133.148 33.36 139.748 26.76 139.748 18.6H93.5475C84.9075 18.6 77.9475 25.68 77.9475 34.32V59.4C77.9475 68.04 84.9075 75 93.5475 75H141.308ZM170.306 67.2C170.306 71.52 173.786 75 178.106 75C182.426 75 185.906 71.52 185.906 67.2V36.48C185.906 34.8 187.346 33.36 189.026 33.36H195.506C203.546 33.36 210.146 26.76 210.146 18.6H145.946C145.946 26.76 152.546 33.36 160.706 33.36H167.066C168.866 33.36 170.306 34.8 170.306 36.48V67.2ZM269.704 75C278.344 75 285.424 68.04 285.424 59.4V34.32C285.424 25.68 278.344 18.6 269.704 18.6H233.704C225.064 18.6 218.104 25.68 218.104 34.32V59.4C218.104 68.04 225.064 75 233.704 75H269.704ZM269.704 55.56C269.704 58.2 267.664 60.24 265.024 60.24H238.384C235.864 60.24 233.704 58.2 233.704 55.56V38.04C233.704 35.52 235.864 33.36 238.384 33.36H265.024C267.664 33.36 269.704 35.52 269.704 38.04V55.56ZM350.131 75C358.771 75 365.851 68.04 365.851 59.4C365.851 53.52 362.611 48.36 357.811 45.72C360.811 42.84 362.731 38.76 362.731 34.32C362.731 25.68 355.651 18.6 347.011 18.6H298.531V75H350.131ZM342.691 33.36C344.611 33.36 346.291 34.92 346.291 36.96C346.291 39 344.611 40.56 342.691 40.56H316.171C314.251 40.56 312.571 39 312.571 36.96C312.571 34.92 314.251 33.36 316.171 33.36H342.691ZM345.811 53.04C347.731 53.04 349.411 54.72 349.411 56.64C349.411 58.68 347.731 60.24 345.811 60.24H316.171C314.251 60.24 312.571 58.68 312.571 56.64C312.571 54.72 314.251 53.04 316.171 53.04H345.811ZM427.907 75C436.547 75 443.627 68.04 443.627 59.4V34.32C443.627 25.68 436.547 18.6 427.907 18.6H391.907C383.267 18.6 376.307 25.68 376.307 34.32V59.4C376.307 68.04 383.267 75 391.907 75H427.907ZM427.907 55.56C427.907 58.2 425.867 60.24 423.227 60.24H396.587C394.067 60.24 391.907 58.2 391.907 55.56V38.04C391.907 35.52 394.067 33.36 396.587 33.36H423.227C425.867 33.36 427.907 35.52 427.907 38.04V55.56ZM475.814 67.2C475.814 71.52 479.294 75 483.614 75C487.934 75 491.414 71.52 491.414 67.2V36.48C491.414 34.8 492.854 33.36 494.534 33.36H501.014C509.054 33.36 515.654 26.76 515.654 18.6H451.454C451.454 26.76 458.054 33.36 466.214 33.36H472.574C474.374 33.36 475.814 34.8 475.814 36.48V67.2ZM570.772 75C580.372 75 588.052 67.32 588.052 57.84C588.052 48.24 580.372 40.56 570.772 40.56H542.332C540.412 40.56 538.732 39 538.732 36.96C538.732 34.92 540.412 33.36 542.332 33.36H570.172C578.332 33.36 584.932 26.76 584.932 18.6H540.292C530.812 18.6 523.132 26.4 523.132 35.88C523.132 45.36 530.812 53.04 540.292 53.04H568.852C570.772 53.04 572.452 54.72 572.452 56.64C572.452 58.68 570.772 60.24 568.852 60.24H535.732C527.572 60.24 520.972 66.84 520.972 75H570.772Z" fill="#2595FA"/>
    <path d="M53.96 53.04C63.44 53.04 71.12 45.36 71.12 35.88C71.12 26.4 63.44 18.6 53.96 18.6H9.32V75C17.96 75 24.92 68.04 24.92 59.4V56.16C24.92 54.48 26.36 53.04 28.04 53.04H53.96ZM51.92 33.36C53.84 33.36 55.52 34.92 55.52 36.96C55.52 39 53.84 40.56 51.92 40.56H27.8C25.76 40.56 24.2 39 24.2 36.96C24.2 34.92 25.76 33.36 27.8 33.36H51.92ZM143.308 75C143.308 66.84 136.708 60.24 128.548 60.24H99.1475C97.2275 60.24 95.5475 58.68 95.5475 56.64C95.5475 54.72 97.2275 53.04 99.1475 53.04H121.348C124.828 53.04 127.708 50.28 127.708 46.8C127.708 43.32 124.828 40.56 121.348 40.56H99.1475C97.2275 40.56 95.5475 39 95.5475 36.96C95.5475 34.92 97.2275 33.36 99.1475 33.36H126.988C135.148 33.36 141.748 26.76 141.748 18.6H95.5475C86.9075 18.6 79.9475 25.68 79.9475 34.32V59.4C79.9475 68.04 86.9075 75 95.5475 75H143.308ZM172.306 67.2C172.306 71.52 175.786 75 180.106 75C184.426 75 187.906 71.52 187.906 67.2V36.48C187.906 34.8 189.346 33.36 191.026 33.36H197.506C205.546 33.36 212.146 26.76 212.146 18.6H147.946C147.946 26.76 154.546 33.36 162.706 33.36H169.066C170.866 33.36 172.306 34.8 172.306 36.48V67.2ZM271.704 75C280.344 75 287.424 68.04 287.424 59.4V34.32C287.424 25.68 280.344 18.6 271.704 18.6H235.704C227.064 18.6 220.104 25.68 220.104 34.32V59.4C220.104 68.04 227.064 75 235.704 75H271.704ZM271.704 55.56C271.704 58.2 269.664 60.24 267.024 60.24H240.384C237.864 60.24 235.704 58.2 235.704 55.56V38.04C235.704 35.52 237.864 33.36 240.384 33.36H267.024C269.664 33.36 271.704 35.52 271.704 38.04V55.56ZM352.131 75C360.771 75 367.851 68.04 367.851 59.4C367.851 53.52 364.611 48.36 359.811 45.72C362.811 42.84 364.731 38.76 364.731 34.32C364.731 25.68 357.651 18.6 349.011 18.6H300.531V75H352.131ZM344.691 33.36C346.611 33.36 348.291 34.92 348.291 36.96C348.291 39 346.611 40.56 344.691 40.56H318.171C316.251 40.56 314.571 39 314.571 36.96C314.571 34.92 316.251 33.36 318.171 33.36H344.691ZM347.811 53.04C349.731 53.04 351.411 54.72 351.411 56.64C351.411 58.68 349.731 60.24 347.811 60.24H318.171C316.251 60.24 314.571 58.68 314.571 56.64C314.571 54.72 316.251 53.04 318.171 53.04H347.811ZM429.907 75C438.547 75 445.627 68.04 445.627 59.4V34.32C445.627 25.68 438.547 18.6 429.907 18.6H393.907C385.267 18.6 378.307 25.68 378.307 34.32V59.4C378.307 68.04 385.267 75 393.907 75H429.907ZM429.907 55.56C429.907 58.2 427.867 60.24 425.227 60.24H398.587C396.067 60.24 393.907 58.2 393.907 55.56V38.04C393.907 35.52 396.067 33.36 398.587 33.36H425.227C427.867 33.36 429.907 35.52 429.907 38.04V55.56ZM477.814 67.2C477.814 71.52 481.294 75 485.614 75C489.934 75 493.414 71.52 493.414 67.2V36.48C493.414 34.8 494.854 33.36 496.534 33.36H503.014C511.054 33.36 517.654 26.76 517.654 18.6H453.454C453.454 26.76 460.054 33.36 468.214 33.36H474.574C476.374 33.36 477.814 34.8 477.814 36.48V67.2ZM572.772 75C582.372 75 590.052 67.32 590.052 57.84C590.052 48.24 582.372 40.56 572.772 40.56H544.332C542.412 40.56 540.732 39 540.732 36.96C540.732 34.92 542.412 33.36 544.332 33.36H572.172C580.332 33.36 586.932 26.76 586.932 18.6H542.292C532.812 18.6 525.132 26.4 525.132 35.88C525.132 45.36 532.812 53.04 542.292 53.04H570.852C572.772 53.04 574.452 54.72 574.452 56.64C574.452 58.68 572.772 60.24 570.852 60.24H537.732C529.572 60.24 522.972 66.84 522.972 75H572.772Z" fill="#FA2525"/>
    <path d="M52.96 53.04C62.44 53.04 70.12 45.36 70.12 35.88C70.12 26.4 62.44 18.6 52.96 18.6H8.32V75C16.96 75 23.92 68.04 23.92 59.4V56.16C23.92 54.48 25.36 53.04 27.04 53.04H52.96ZM50.92 33.36C52.84 33.36 54.52 34.92 54.52 36.96C54.52 39 52.84 40.56 50.92 40.56H26.8C24.76 40.56 23.2 39 23.2 36.96C23.2 34.92 24.76 33.36 26.8 33.36H50.92ZM142.308 75C142.308 66.84 135.708 60.24 127.548 60.24H98.1475C96.2275 60.24 94.5475 58.68 94.5475 56.64C94.5475 54.72 96.2275 53.04 98.1475 53.04H120.348C123.828 53.04 126.708 50.28 126.708 46.8C126.708 43.32 123.828 40.56 120.348 40.56H98.1475C96.2275 40.56 94.5475 39 94.5475 36.96C94.5475 34.92 96.2275 33.36 98.1475 33.36H125.988C134.148 33.36 140.748 26.76 140.748 18.6H94.5475C85.9075 18.6 78.9475 25.68 78.9475 34.32V59.4C78.9475 68.04 85.9075 75 94.5475 75H142.308ZM171.306 67.2C171.306 71.52 174.786 75 179.106 75C183.426 75 186.906 71.52 186.906 67.2V36.48C186.906 34.8 188.346 33.36 190.026 33.36H196.506C204.546 33.36 211.146 26.76 211.146 18.6H146.946C146.946 26.76 153.546 33.36 161.706 33.36H168.066C169.866 33.36 171.306 34.8 171.306 36.48V67.2ZM270.704 75C279.344 75 286.424 68.04 286.424 59.4V34.32C286.424 25.68 279.344 18.6 270.704 18.6H234.704C226.064 18.6 219.104 25.68 219.104 34.32V59.4C219.104 68.04 226.064 75 234.704 75H270.704ZM270.704 55.56C270.704 58.2 268.664 60.24 266.024 60.24H239.384C236.864 60.24 234.704 58.2 234.704 55.56V38.04C234.704 35.52 236.864 33.36 239.384 33.36H266.024C268.664 33.36 270.704 35.52 270.704 38.04V55.56ZM351.131 75C359.771 75 366.851 68.04 366.851 59.4C366.851 53.52 363.611 48.36 358.811 45.72C361.811 42.84 363.731 38.76 363.731 34.32C363.731 25.68 356.651 18.6 348.011 18.6H299.531V75H351.131ZM343.691 33.36C345.611 33.36 347.291 34.92 347.291 36.96C347.291 39 345.611 40.56 343.691 40.56H317.171C315.251 40.56 313.571 39 313.571 36.96C313.571 34.92 315.251 33.36 317.171 33.36H343.691ZM346.811 53.04C348.731 53.04 350.411 54.72 350.411 56.64C350.411 58.68 348.731 60.24 346.811 60.24H317.171C315.251 60.24 313.571 58.68 313.571 56.64C313.571 54.72 315.251 53.04 317.171 53.04H346.811ZM428.907 75C437.547 75 444.627 68.04 444.627 59.4V34.32C444.627 25.68 437.547 18.6 428.907 18.6H392.907C384.267 18.6 377.307 25.68 377.307 34.32V59.4C377.307 68.04 384.267 75 392.907 75H428.907ZM428.907 55.56C428.907 58.2 426.867 60.24 424.227 60.24H397.587C395.067 60.24 392.907 58.2 392.907 55.56V38.04C392.907 35.52 395.067 33.36 397.587 33.36H424.227C426.867 33.36 428.907 35.52 428.907 38.04V55.56ZM476.814 67.2C476.814 71.52 480.294 75 484.614 75C488.934 75 492.414 71.52 492.414 67.2V36.48C492.414 34.8 493.854 33.36 495.534 33.36H502.014C510.054 33.36 516.654 26.76 516.654 18.6H452.454C452.454 26.76 459.054 33.36 467.214 33.36H473.574C475.374 33.36 476.814 34.8 476.814 36.48V67.2ZM571.772 75C581.372 75 589.052 67.32 589.052 57.84C589.052 48.24 581.372 40.56 571.772 40.56H543.332C541.412 40.56 539.732 39 539.732 36.96C539.732 34.92 541.412 33.36 543.332 33.36H571.172C579.332 33.36 585.932 26.76 585.932 18.6H541.292C531.812 18.6 524.132 26.4 524.132 35.88C524.132 45.36 531.812 53.04 541.292 53.04H569.852C571.772 53.04 573.452 54.72 573.452 56.64C573.452 58.68 571.772 60.24 569.852 60.24H536.732C528.572 60.24 521.972 66.84 521.972 75H571.772Z" fill="white"/>
</svg>
