<svg width="21" height="18" viewBox="0 0 21 18" fill="none" xmlns="http://www.w3.org/2000/svg">
    <path fill-rule="evenodd" clip-rule="evenodd" d="M15.8292 17.3358C16.1065 17.5321 16.4638 17.5812 16.7824 17.4606C17.101 17.3392 17.3351 17.0672 17.4058 16.7374C18.154 13.221 19.969 4.3207 20.6501 1.12203C20.7017 0.880949 20.6156 0.630394 20.4262 0.469384C20.2368 0.308375 19.9742 0.26188 19.74 0.348842C16.1297 1.68514 5.01145 5.85675 0.467012 7.53831C0.178573 7.64508 -0.0091286 7.92233 0.000342558 8.22626C0.0106747 8.53106 0.215596 8.79539 0.510924 8.88408C2.54895 9.49368 5.22412 10.3418 5.22412 10.3418C5.22412 10.3418 6.47431 14.1173 7.1261 16.0374C7.20789 16.2785 7.39646 16.4679 7.64529 16.5333C7.89326 16.5979 8.15845 16.5299 8.34357 16.3551C9.39057 15.3667 11.0093 13.8384 11.0093 13.8384C11.0093 13.8384 14.0848 16.0934 15.8292 17.3358V17.3358ZM6.34946 9.86477L7.79511 14.6331L8.11626 11.6135C8.11626 11.6135 13.7017 6.5757 16.8857 3.70422C16.9787 3.61984 16.9916 3.47863 16.9141 3.37961C16.8375 3.2806 16.6963 3.25735 16.5904 3.32451C12.9001 5.68111 6.34946 9.86477 6.34946 9.86477Z" fill="white"/>
</svg>
