<svg width="20" height="17" viewBox="0 0 20 17" fill="none" xmlns="http://www.w3.org/2000/svg">
    <path d="M19.6878 2.39294C18.9636 2.71427 18.1858 2.9315 17.368 3.02914C18.2026 2.52936 18.842 1.73739 19.1439 0.794802C18.3511 1.26569 17.4834 1.5972 16.5786 1.77492C15.8423 0.990033 14.7922 0.5 13.6305 0.5C11.4007 0.5 9.59235 2.30765 9.59235 4.53876C9.59235 4.85488 9.62795 5.16329 9.6964 5.4594C6.33973 5.2907 3.36382 3.68282 1.37188 1.23964C1.02407 1.83633 0.824976 2.53009 0.824976 3.2703C0.824976 4.67133 1.53808 5.90746 2.62163 6.63157C1.98018 6.61169 1.35282 6.43855 0.791977 6.12662V6.17766C0.791977 8.13466 2.18393 9.76648 4.03167 10.1376C3.69224 10.2306 3.33603 10.2792 2.96752 10.2792C2.70696 10.2792 2.45418 10.2545 2.20723 10.2081C2.7212 11.8121 4.21277 12.9797 5.9796 13.0127C4.59735 14.0962 2.85564 14.7421 0.963958 14.7421C0.638138 14.7421 0.316124 14.7227 0 14.6846C1.78763 15.8308 3.91015 16.5 6.19105 16.5C13.6195 16.5 17.6822 10.3458 17.6822 5.00883C17.6822 4.83361 17.6784 4.6597 17.6699 4.48642C18.4615 3.91389 19.1447 3.205 19.6878 2.39294Z" fill="white"/>
</svg>
